<?xml version="1.0" encoding="utf-8"?>
<!-- Generator: Adobe Illustrator 21.1.0, SVG Export Plug-In . SVG Version: 6.00 Build 0)  -->
<svg version="1.1" id="Capa_1" xmlns="http://www.w3.org/2000/svg" xmlns:xlink="http://www.w3.org/1999/xlink" x="0px" y="0px"
	 viewBox="0 0 20 20" style="enable-background:new 0 0 20 20;" xml:space="preserve">
<title>faviconHT</title>
<g>
	<path d="M5.5,14.5v-3.9H1.9v3.9H0.6V5.5h1.4v3.8h3.6V5.5h1.4v8.9H5.5z"/>
	<path d="M11.9,12.3C11.4,12.7,10.7,13,10,13c-0.9,0.1-1.8-0.6-1.8-1.5c0-0.1,0-0.1,0-0.2c0-1,0.7-1.4,1.4-1.9
		C9.2,9.1,8.9,8.6,8.9,8.1c0-0.7,0.5-1.2,1.2-1.2s1.2,0.5,1.2,1.2l0,0c0,0.5-0.3,0.9-0.7,1.1l-0.4,0.3l1.7,2.1
		c0.3-0.4,0.4-1,0.4-1.5h0.4c0,0.6-0.1,1.3-0.5,1.8l0.8,1h-0.6L11.9,12.3z M8.6,11.3c0,0.7,0.5,1.3,1.3,1.3c0,0,0.1,0,0.1,0
		c0.6,0,1.2-0.2,1.6-0.7L9.7,9.8C9.3,10.2,8.6,10.5,8.6,11.3z M10.1,7.4c-0.4,0-0.8,0.3-0.8,0.7c0,0,0,0,0,0l0,0
		c0,0.3,0.1,0.5,0.6,1.1l0.1-0.1L10.3,9c0.3-0.2,0.6-0.4,0.6-0.8C10.9,7.7,10.5,7.4,10.1,7.4C10.1,7.3,10.1,7.3,10.1,7.4L10.1,7.4z"
		/>
	<path d="M17,6.8v7.7h-1.4V6.8h-2.4V5.5h6.3v1.2L17,6.8z"/>
</g>
</svg>
