<svg id="Capa_1" data-name="Capa 1" xmlns="http://www.w3.org/2000/svg" viewBox="0 0 466 172.6"><defs><style>.cls-1{fill:#fff;}.cls-2{fill:#a6894f;}</style></defs><title>logoMayorista</title><path class="cls-1" d="M59.17,90.73V70.62H40.48V90.73h-7v-46h7V64.35H59.17V44.69h7v46Z"/><path class="cls-1" d="M105.21,86.2A17.41,17.41,0,0,1,81,86.2c-4.53-4.53-4.46-9.64-4.46-18.49s-.06-14,4.46-18.49a17.41,17.41,0,0,1,24.25,0c4.53,4.53,4.4,9.64,4.4,18.49S109.74,81.68,105.21,86.2Zm-5.3-32.78a9.68,9.68,0,0,0-13.71,0c-2.26,2.46-2.72,5-2.72,14.29S83.94,79.54,86.2,82a9.68,9.68,0,0,0,13.71,0c2.26-2.46,2.72-5,2.72-14.29S102.17,55.88,99.91,53.42Z"/><path class="cls-1" d="M153.58,90.73V60L143,82.39h-5.17L126.94,60V90.73h-7v-46h7l13.45,28.65,13.19-28.65h7v46Z"/><path class="cls-1" d="M172.53,90.73v-46H202V51H179.51V64.41h19.14v6.21H179.51V84.46H202v6.27Z"/><path class="cls-1" d="M235.15,79.45a13.43,13.43,0,0,1-9.46,3.89c-5.66,0-9.54-3.54-9.54-8.77,0-4.88,3.45-7.08,7-9.54-1.6-1.94-3.41-4.15-3.41-6.82a6.26,6.26,0,0,1,12.52,0c0,2.55-1.6,4.19-3.54,5.53,0,0-1.6,1.12-2.29,1.55L235.28,76c1.38-2.07,1.81-3.76,1.81-7.64h2.29c0,3.84-.73,7-2.68,9.37l4.4,5.35h-3Zm-16.67-5c0,4,2.89,6.82,7.17,6.82,2.46,0,5.1-.65,8.2-3.41l-9.33-11.27C221.64,68.57,218.48,70.47,218.48,74.45ZM226,54.15a3.85,3.85,0,0,0-3.93,4c0,1.55.6,2.81,3,5.66l.69-.48a8.78,8.78,0,0,0,1.08-.73c1.6-1.08,3.11-2.29,3.11-4.32A3.94,3.94,0,0,0,226,54.15Z"/><path class="cls-1" d="M265.73,51V90.73h-7V51H246.07V44.69H278.4V51Z"/><path class="cls-1" d="M311.77,90.73l-9.7-19.4h-8.73v19.4h-7v-46H304.2c8.73,0,14.29,5.63,14.29,13.45a12.09,12.09,0,0,1-9.18,12.22l10.6,20.37ZM303.69,51H293.34V65.38h10.35c4.66,0,7.82-2.65,7.82-7.18S308.34,51,303.69,51Z"/><path class="cls-1" d="M328.71,90.73v-46h29.42V51H335.7V64.41h19.14v6.21H335.7V84.46h22.44v6.27Z"/><path class="cls-1" d="M394.15,90.73,391,81.48H372.81l-3.17,9.25h-7.44l16.88-46h5.63l16.88,46ZM382.06,55.1l-7.18,20.43H389Z"/><path class="cls-1" d="M419.83,51V90.73h-7V51H400.17V44.69H432.5V51Z"/><polygon class="cls-1" points="11.5 12.29 11.5 134.65 83.5 134.65 83.5 132.29 13.5 132.29 13.5 14.64 452.5 14.64 452.5 132.29 382.5 132.29 382.5 134.65 454.5 134.65 454.5 12.29 11.5 12.29"/><path class="cls-2" d="M121.39,107.19a3.16,3.16,0,0,1,2.69,1.25,3.84,3.84,0,0,1,.76,2.4,12.73,12.73,0,0,1-1.7,5.77,21,21,0,0,1-3.71,5q-1.46,1.44-2.3,1.44a1.35,1.35,0,0,1-1-.55,1.32,1.32,0,0,1-.34-.89q0-.91,1.59-2.09a15.09,15.09,0,0,0,3.58-3.66,9.23,9.23,0,0,0,2-4.86,1.76,1.76,0,0,0-.35-1.2,1.35,1.35,0,0,0-1.06-.39q-1.44,0-4.07,2.09a42.43,42.43,0,0,0-6.35,6.4,44.38,44.38,0,0,0-6.48,10.13,22.52,22.52,0,0,0-2.3,8.83,4.51,4.51,0,0,0,1,3,3.41,3.41,0,0,0,2.74,1.38q2.82,0,7.1-4.39a37.24,37.24,0,0,0,3.11-3.86,18.89,18.89,0,0,0,1.54-2.3q.39-.76.91-.76c.38,0,.58.18.58.55q0,1.18-2.92,5.27a24.54,24.54,0,0,1-5.35,5.59,10.64,10.64,0,0,1-6.21,2.43,5.25,5.25,0,0,1-4.73-2.74A7.5,7.5,0,0,1,99,137q0-5.64,5.33-14.23A52.91,52.91,0,0,1,113.92,111Q118.28,107.19,121.39,107.19Z"/><path class="cls-2" d="M127.89,136.47a19.76,19.76,0,0,1-1.7,2.56q-1.65,2-3.26,2a2.43,2.43,0,0,1-2.19-1.33,4,4,0,0,1-.5-2,14,14,0,0,1,1.83-6.4,16.9,16.9,0,0,1,4.91-6A6.24,6.24,0,0,1,130.6,124a2.58,2.58,0,0,1,1.83.68,1.84,1.84,0,0,1,.63,1.36,4.37,4.37,0,0,1-.44,1.59,1.75,1.75,0,0,1,.39,1,4.38,4.38,0,0,1-.73,1.8,20.12,20.12,0,0,0-1.51,3.39,11.3,11.3,0,0,0-.81,3.6,2.55,2.55,0,0,0,.65,1.8,4.91,4.91,0,0,0,1.07.6,1.12,1.12,0,0,1,.65,1.1,1,1,0,0,1-.37.81,1.35,1.35,0,0,1-.91.34,3,3,0,0,1-2.43-1.25,3.9,3.9,0,0,1-.83-2.56Q127.78,137.67,127.89,136.47Zm3.26-8.59a2.6,2.6,0,0,0-.68-.85,1.28,1.28,0,0,0-.78-.27q-2,0-4.31,3.47-2.56,3.84-2.56,6.5a1.67,1.67,0,0,0,.25,1,.86.86,0,0,0,.74.34q1.25,0,2.93-2.66a44.22,44.22,0,0,0,2.32-4.31,22.87,22.87,0,0,1,1.33-2.45A3.83,3.83,0,0,1,131.15,127.88Z"/><path class="cls-2" d="M143.61,124a42.52,42.52,0,0,0-3.13,5.9q-2.06,4.65-2.06,6.95a1.55,1.55,0,0,0,.27,1,1,1,0,0,0,.82.34q1.31,0,3.16-2.45a31.5,31.5,0,0,0,2.09-3q.5-.86,1.07-.86a.78.78,0,0,1,.57.24.71.71,0,0,1,.21.47q0,1-2.53,4.31-3,4-5.54,4a2.65,2.65,0,0,1-2.22-1.23,3.83,3.83,0,0,1-.55-2.22A18.92,18.92,0,0,1,137.6,130q.44-1,2.45-5a4.65,4.65,0,0,1-1.07.18,1.78,1.78,0,0,1-1-.26,1.07,1.07,0,0,1-.58-.91,1.18,1.18,0,0,1,.76-1,12.33,12.33,0,0,1,1.93-.34,13.74,13.74,0,0,0,1.83-.5,46.26,46.26,0,0,1,3-4.47,25.78,25.78,0,0,1,1.59-2,1.7,1.7,0,0,1,1.1-.65,1,1,0,0,1,.68.37,1,1,0,0,1,.31.68,6.65,6.65,0,0,1-1.46,2.69,24.37,24.37,0,0,0-1.44,2.12,18.42,18.42,0,0,1,4.15-.78q1.44,0,1.44,1.2a1,1,0,0,1-.5.89,4.2,4.2,0,0,1-1.36.26,26.17,26.17,0,0,0-3.94,1Q144.55,123.65,143.61,124Z"/><path class="cls-2" d="M154.79,136.47a19.86,19.86,0,0,1-1.7,2.56q-1.65,2-3.26,2a2.43,2.43,0,0,1-2.19-1.33,4,4,0,0,1-.5-2,14,14,0,0,1,1.83-6.4,16.9,16.9,0,0,1,4.91-6A6.24,6.24,0,0,1,157.5,124a2.59,2.59,0,0,1,1.83.68A1.84,1.84,0,0,1,160,126a4.35,4.35,0,0,1-.44,1.59,1.75,1.75,0,0,1,.39,1,4.39,4.39,0,0,1-.73,1.8,20.11,20.11,0,0,0-1.52,3.39,11.32,11.32,0,0,0-.81,3.6,2.55,2.55,0,0,0,.65,1.8,4.91,4.91,0,0,0,1.07.6,1.12,1.12,0,0,1,.65,1.1,1,1,0,0,1-.37.81,1.35,1.35,0,0,1-.91.34,3,3,0,0,1-2.43-1.25,3.9,3.9,0,0,1-.84-2.56Q154.68,137.67,154.79,136.47Zm3.26-8.59a2.59,2.59,0,0,0-.68-.85,1.28,1.28,0,0,0-.78-.27q-2,0-4.31,3.47-2.56,3.84-2.56,6.5a1.66,1.66,0,0,0,.25,1,.86.86,0,0,0,.74.34q1.25,0,2.92-2.66a44,44,0,0,0,2.32-4.31,22.87,22.87,0,0,1,1.33-2.45A3.84,3.84,0,0,1,158,127.88ZM162.72,114a.92.92,0,0,1,.73.34.85.85,0,0,1,.29.6q0,.65-2.35,3.55a20.33,20.33,0,0,1-1.72,2,1.59,1.59,0,0,1-1,.5q-.81,0-.81-.91a3.39,3.39,0,0,1,1-1.8,29.94,29.94,0,0,0,2.38-3.11Q162,114,162.72,114Z"/><path class="cls-2" d="M165.23,132.1q-.78,2-1.17,3.29a7,7,0,0,0-.39,1.75q0,.65.63.65.94,0,2.43-1.78a32.36,32.36,0,0,0,2.09-3.11q.55-.89,1.15-.89t.68.65q0,1.12-2.59,4.54-2.69,3.58-5,3.58a1.94,1.94,0,0,1-1.62-.84,2.39,2.39,0,0,1-.44-1.46,13.46,13.46,0,0,1,.89-4,63.76,63.76,0,0,1,2.64-6.29,88,88,0,0,1,9.17-15.54q3.74-4.91,6.19-4.91a1.59,1.59,0,0,1,1.28.6,2,2,0,0,1,.52,1.38q0,3.66-6.53,12.17a63.12,63.12,0,0,1-7,7.57Q167.08,130.43,165.23,132.1Zm1.85-4.15a47.7,47.7,0,0,0,9.71-11.75q2.22-3.68,2.22-4.88,0-.57-.5-.57-1.44,0-5.22,5.72A81.65,81.65,0,0,0,167.08,128Z"/><path class="cls-2" d="M182.52,123.93q2.14,0,2.14,2.61,0,3.47-3.21,8.8-3.5,5.77-6.76,5.77a2.33,2.33,0,0,1-2.22-1.41,3.64,3.64,0,0,1-.37-1.7,14.54,14.54,0,0,1,2.3-7.26,17.59,17.59,0,0,1,5-5.64A5.58,5.58,0,0,1,182.52,123.93Zm-2.72,9.87c-.43-.35-.65-.62-.65-.81s.28-.52.84-1.15q2.35-2.64,2.35-4.26a.78.78,0,0,0-.13-.42.69.69,0,0,0-.65-.39q-.83,0-2.45,1.62a16.47,16.47,0,0,0-3.19,4.31,9.88,9.88,0,0,0-1.28,4.2,1.34,1.34,0,0,0,.24.78,1,1,0,0,0,.86.47q1.25,0,2.69-1.88a8,8,0,0,0,1-1.62A5,5,0,0,0,179.8,133.8Z"/><path class="cls-2" d="M192.65,138.53a22.41,22.41,0,0,0,4.15-3.71,27.75,27.75,0,0,0,2.85-3.94q.42-.68.86-.68.63,0,.63.6a5.65,5.65,0,0,1-1,2.35,26.88,26.88,0,0,1-9.24,8.75q-2.87,6-4.23,8.15-3.6,5.64-6.79,5.64a2.54,2.54,0,0,1-2.4-1.31,3.51,3.51,0,0,1-.42-1.72q0-4.1,5.27-7.86.84-.63,6.76-3.92,1.15-2.43,1.78-3.81-2.74,2.87-4.54,2.87a1.93,1.93,0,0,1-1.75-1.15,3.37,3.37,0,0,1-.39-1.57,11.16,11.16,0,0,1,1.54-4.83,20.58,20.58,0,0,1,5.27-6.74,7.76,7.76,0,0,1,4.57-2.06,2.35,2.35,0,0,1,1.75.76,2,2,0,0,1,.5,1.46,7.52,7.52,0,0,1-.81,3q.6.57.6.86a1,1,0,0,1-.26.52q-.71,1-2.27,3.63A41.85,41.85,0,0,0,192.65,138.53Zm-5.12,5.38a16.87,16.87,0,0,0-6.08,4.44,8.55,8.55,0,0,0-1.75,2.92,2.57,2.57,0,0,0-.16.78,1.15,1.15,0,0,0,.16.6.9.9,0,0,0,.81.47q1.62,0,3.79-3.47Q186.17,146.65,187.53,143.91Zm4.94-11.41q-.37-.39-.37-.55t.39-.6a12.5,12.5,0,0,0,2.12-2.61,3.6,3.6,0,0,0,.65-1.67q0-.71-.65-.71-1.12,0-3.21,2.14a19.06,19.06,0,0,0-3.86,5.67,6.69,6.69,0,0,0-.68,2.4,1,1,0,0,0,.21.71.76.76,0,0,0,.6.23q.91,0,2.56-1.88a19.93,19.93,0,0,0,1.78-2.35A4.59,4.59,0,0,0,192.46,132.5Z"/><path class="cls-2" d="M211.24,123.93q2.14,0,2.14,2.61,0,3.47-3.21,8.8-3.5,5.77-6.76,5.77a2.33,2.33,0,0,1-2.22-1.41,3.65,3.65,0,0,1-.37-1.7,14.53,14.53,0,0,1,2.3-7.26,17.57,17.57,0,0,1,5-5.64A5.57,5.57,0,0,1,211.24,123.93Zm-2.72,9.87q-.65-.52-.65-.81t.83-1.15q2.35-2.64,2.35-4.26a.78.78,0,0,0-.13-.42.69.69,0,0,0-.65-.39q-.84,0-2.46,1.62a16.47,16.47,0,0,0-3.19,4.31,9.86,9.86,0,0,0-1.28,4.2,1.34,1.34,0,0,0,.23.78,1,1,0,0,0,.86.47q1.25,0,2.69-1.88a8.14,8.14,0,0,0,1-1.62A4.9,4.9,0,0,0,208.52,133.8Z"/><path class="cls-2" d="M241.27,132.63q.83-1.23,3.87-5.9,2.58-4,8.25-11.52,3.29-4.36,6-7.31,1.59-1.78,2.82-1.78a1.55,1.55,0,0,1,1.17.5,1.3,1.3,0,0,1,.42,1,6.76,6.76,0,0,1-1.07,2.79q-.21.39-2.14,3.79-3.45,6.11-4.67,8.72a97.87,97.87,0,0,0-4.94,12.19,17.17,17.17,0,0,0-.91,4.41,4.25,4.25,0,0,0,.05.65c.09.68.13,1.08.13,1.2a2.1,2.1,0,0,1-.58,1.41,1.44,1.44,0,0,1-1.12.6,1.38,1.38,0,0,1-1.2-.86,3.56,3.56,0,0,1-.39-1.83q0-7.39,12.32-29-6.45,6.89-14.28,19.74a18,18,0,0,1-2.85,3.79,3.25,3.25,0,0,1-2.09,1,1.55,1.55,0,0,1-1.46-.86,2.73,2.73,0,0,1-.31-1.33q0-6.53,7.76-20.55a45.9,45.9,0,0,0-5.07,6.24A123.75,123.75,0,0,0,233,133.1q-1.65,3.32-4,8.85-1.17,2.82-2.72,2.82a.79.79,0,0,1-.65-.34.83.83,0,0,1-.21-.57,11.13,11.13,0,0,1,1-2.72q2.06-4.88,3.16-7a123.29,123.29,0,0,1,13.29-20.58q3.21-4,4.44-5.22a3.53,3.53,0,0,1,2.12-1.23,1.48,1.48,0,0,1,1,.47,1.66,1.66,0,0,1,.6,1.25,6.14,6.14,0,0,1-1.1,2.58,82.3,82.3,0,0,0-5.77,11.49A48.92,48.92,0,0,0,241.27,132.63Z"/><path class="cls-2" d="M265,136.47a19.76,19.76,0,0,1-1.7,2.56q-1.65,2-3.26,2a2.43,2.43,0,0,1-2.19-1.33,4,4,0,0,1-.5-2,14,14,0,0,1,1.83-6.4,16.88,16.88,0,0,1,4.91-6,6.24,6.24,0,0,1,3.63-1.36,2.58,2.58,0,0,1,1.83.68,1.84,1.84,0,0,1,.63,1.36,4.37,4.37,0,0,1-.44,1.59,1.74,1.74,0,0,1,.39,1,4.39,4.39,0,0,1-.73,1.8,20,20,0,0,0-1.51,3.39,11.28,11.28,0,0,0-.81,3.6,2.55,2.55,0,0,0,.65,1.8,4.92,4.92,0,0,0,1.07.6,1.12,1.12,0,0,1,.65,1.1,1,1,0,0,1-.37.81,1.35,1.35,0,0,1-.91.34,3,3,0,0,1-2.43-1.25,3.9,3.9,0,0,1-.84-2.56Q264.87,137.67,265,136.47Zm3.26-8.59a2.61,2.61,0,0,0-.68-.85,1.28,1.28,0,0,0-.79-.27q-2,0-4.31,3.47-2.56,3.84-2.56,6.5a1.66,1.66,0,0,0,.25,1,.86.86,0,0,0,.74.34q1.25,0,2.93-2.66a44.18,44.18,0,0,0,2.32-4.31,22.79,22.79,0,0,1,1.33-2.45A3.87,3.87,0,0,1,268.24,127.88Z"/><path class="cls-2" d="M280.52,133.46q-2.32,2.74-3.71,4.07-2.74,2.61-4.57,2.61a1.71,1.71,0,0,1-1.41-.65,2.11,2.11,0,0,1-.39-1.31q0-2.82,3.34-7.49t4.91-4.75a1.13,1.13,0,0,1,1,1,1.72,1.72,0,0,1-.3,1,24.54,24.54,0,0,1-1.71,1.92,27,27,0,0,0-2.74,3.34,6.4,6.4,0,0,0-1.44,3q0,.55.52.55,1,0,3.92-2.85,1.8-1.8,2.82-3,.21-.26,1.83-2.48,1.46-2,1.8-2.32a2.1,2.1,0,0,1,1.46-.91,1,1,0,0,1,.76.37,1.12,1.12,0,0,1,.31.78,6.21,6.21,0,0,1-1,2.53q-1.25,2.17-2.3,4a41,41,0,0,0-2.53,5.22,14.32,14.32,0,0,0,3.05-2.38,15.06,15.06,0,0,0,2.87-3.5q.5-1,1-1a.65.65,0,0,1,.73.73q0,1.38-2.35,4.13a25.14,25.14,0,0,1-6.95,5.59,83,83,0,0,1-4.15,8.75q-3.66,6.4-7.55,6.4a3.1,3.1,0,0,1-2.56-1.23,3.67,3.67,0,0,1-.76-2.38q0-4.07,5.72-8.33a50.47,50.47,0,0,1,5-3.13q1.33-.76,2.09-1.23.47-1.2,1.44-3.19Q279.71,135.19,280.52,133.46Zm-4.8,10.26a26.7,26.7,0,0,0-5.67,4q-2.92,2.69-2.93,5a1.28,1.28,0,0,0,1.31,1.31q2,0,4.33-4.1.39-.68,2.14-4.52Z"/><path class="cls-2" d="M299.26,123.93q2.14,0,2.14,2.61,0,3.47-3.21,8.8-3.5,5.77-6.76,5.77a2.33,2.33,0,0,1-2.22-1.41,3.64,3.64,0,0,1-.37-1.7,14.53,14.53,0,0,1,2.3-7.26,17.59,17.59,0,0,1,5-5.64A5.58,5.58,0,0,1,299.26,123.93Zm-2.71,9.87q-.65-.52-.65-.81t.84-1.15q2.35-2.64,2.35-4.26a.79.79,0,0,0-.13-.42.69.69,0,0,0-.65-.39q-.83,0-2.45,1.62a16.48,16.48,0,0,0-3.19,4.31,9.89,9.89,0,0,0-1.28,4.2,1.33,1.33,0,0,0,.24.78,1,1,0,0,0,.86.47q1.25,0,2.69-1.88a8,8,0,0,0,1-1.62A5.14,5.14,0,0,0,296.55,133.8Z"/><path class="cls-2" d="M306.34,132.18a51,51,0,0,1,5.9-5.35,24.29,24.29,0,0,1,2.56-1.75,2.67,2.67,0,0,1,.86-.39c.26,0,.52.19.78.57a1,1,0,0,1,.23.57q0,.47-1,1.28Q313,129.23,313,130.3c0,.4.22.6.68.6q1.12,0,3.87-1.85a1.52,1.52,0,0,1,.78-.31.6.6,0,0,1,.42.21.7.7,0,0,1,.23.5q0,.78-2.19,2.4a7.38,7.38,0,0,1-4.36,1.72,2.83,2.83,0,0,1-1.54-.44,1.4,1.4,0,0,1-.6-1.31,2.82,2.82,0,0,1,.55-1.49,25.88,25.88,0,0,0-4.86,5,36.32,36.32,0,0,0-3.21,5.41q-.6,1.2-1.49,1.2t-1-.91a20.67,20.67,0,0,1,1.52-4.75,36.15,36.15,0,0,1,4.7-8.9q1.51-2,2.53-2a1,1,0,0,1,.63.21.8.8,0,0,1,.34.65,2.15,2.15,0,0,1-.52,1.1l-1.38,1.75A13.7,13.7,0,0,0,306.34,132.18Z"/><path class="cls-2" d="M324.78,125.13a.91.91,0,0,1,.73.34,1,1,0,0,1,.21.57,3.52,3.52,0,0,1-.76,1.57,48.16,48.16,0,0,0-3.87,6.92,58.28,58.28,0,0,0-2.17,5.75q-.42,1.31-1.3,1.31a1,1,0,0,1-.84-.42,1.11,1.11,0,0,1-.29-.73,27.34,27.34,0,0,1,1.67-5.22,36.1,36.1,0,0,1,4.23-7.73,14.44,14.44,0,0,1,1.41-1.85A1.35,1.35,0,0,1,324.78,125.13Zm5-9.69a1.05,1.05,0,0,1,1.18,1.2,3.9,3.9,0,0,1-1.15,2.43,3,3,0,0,1-2.12,1.28,1,1,0,0,1-.81-.37,1.18,1.18,0,0,1-.31-.84,4,4,0,0,1,1.38-2.66A2.79,2.79,0,0,1,329.74,115.45Z"/><path class="cls-2" d="M337,123.44a4.21,4.21,0,0,1,2.43.57,2,2,0,0,1,.81,1.75,4.72,4.72,0,0,1-1.15,3,7.57,7.57,0,0,1-3.29,2.19,6,6,0,0,1-2,.44c-.73,0-1.1-.32-1.1-1a1.07,1.07,0,0,1,.63-1q.16-.08,1.78-.44a4,4,0,0,0,1.78-.91,1.72,1.72,0,0,0,.71-1.31,1,1,0,0,0-.31-.81,1.44,1.44,0,0,0-.94-.26,6.14,6.14,0,0,0-3.34,1.23,3.94,3.94,0,0,0-2.12,3.29,6.53,6.53,0,0,0,1.38,3.39,7.06,7.06,0,0,1,1.54,3.76,4.07,4.07,0,0,1-2,3.6,5.13,5.13,0,0,1-2.85.81,4.41,4.41,0,0,1-3.81-1.8,5.07,5.07,0,0,1-.91-3,5.51,5.51,0,0,1,1-3.42,1.85,1.85,0,0,1,1.41-.91c.43,0,.65.17.65.52a1.48,1.48,0,0,1-.23.63,5.51,5.51,0,0,0-.6,2.64,2.91,2.91,0,0,0,.91,2.17,2.59,2.59,0,0,0,1.85.78,2,2,0,0,0,1.59-.68,2.24,2.24,0,0,0,.47-1.46,5.42,5.42,0,0,0-1.25-2.85,7.73,7.73,0,0,1-1.72-4.36q0-2.61,2.85-4.62A10,10,0,0,1,337,123.44Z"/><path class="cls-2" d="M348.15,124a42.42,42.42,0,0,0-3.13,5.9q-2.06,4.65-2.06,6.95a1.56,1.56,0,0,0,.27,1,1,1,0,0,0,.82.34q1.3,0,3.16-2.45a31.5,31.5,0,0,0,2.09-3q.5-.86,1.07-.86a.78.78,0,0,1,.57.24.71.71,0,0,1,.21.47q0,1-2.53,4.31-3,4-5.54,4a2.65,2.65,0,0,1-2.22-1.23,3.84,3.84,0,0,1-.55-2.22,18.92,18.92,0,0,1,1.83-7.36q.44-1,2.45-5a4.65,4.65,0,0,1-1.07.18,1.79,1.79,0,0,1-1-.26A1.07,1.07,0,0,1,342,124a1.17,1.17,0,0,1,.76-1,12.33,12.33,0,0,1,1.93-.34,13.71,13.71,0,0,0,1.83-.5,46.4,46.4,0,0,1,3-4.47q1.15-1.57,1.59-2a1.7,1.7,0,0,1,1.1-.65,1,1,0,0,1,.68.37,1,1,0,0,1,.31.68,6.65,6.65,0,0,1-1.46,2.69,24.64,24.64,0,0,0-1.44,2.12,18.43,18.43,0,0,1,4.15-.78q1.44,0,1.44,1.2a1,1,0,0,1-.5.89,4.22,4.22,0,0,1-1.36.26,26.14,26.14,0,0,0-3.94,1Q349.09,123.65,348.15,124Z"/><path class="cls-2" d="M359.32,136.47a19.76,19.76,0,0,1-1.7,2.56q-1.65,2-3.26,2a2.43,2.43,0,0,1-2.19-1.33,4,4,0,0,1-.5-2,14,14,0,0,1,1.83-6.4,16.88,16.88,0,0,1,4.91-6A6.24,6.24,0,0,1,362,124a2.58,2.58,0,0,1,1.83.68,1.84,1.84,0,0,1,.63,1.36,4.37,4.37,0,0,1-.44,1.59,1.74,1.74,0,0,1,.39,1,4.39,4.39,0,0,1-.73,1.8,20,20,0,0,0-1.51,3.39,11.28,11.28,0,0,0-.81,3.6,2.55,2.55,0,0,0,.65,1.8,4.92,4.92,0,0,0,1.07.6,1.12,1.12,0,0,1,.65,1.1,1,1,0,0,1-.37.81,1.35,1.35,0,0,1-.91.34,3,3,0,0,1-2.43-1.25,3.9,3.9,0,0,1-.84-2.56Q359.22,137.67,359.32,136.47Zm3.26-8.59a2.61,2.61,0,0,0-.68-.85,1.28,1.28,0,0,0-.79-.27q-2,0-4.31,3.47-2.56,3.84-2.56,6.5a1.66,1.66,0,0,0,.25,1,.86.86,0,0,0,.74.34q1.25,0,2.93-2.66a44.18,44.18,0,0,0,2.32-4.31,22.79,22.79,0,0,1,1.33-2.45A3.87,3.87,0,0,1,362.59,127.88Z"/></svg>