<svg id="Layer_1" data-name="Layer 1" xmlns="http://www.w3.org/2000/svg" viewBox="0 0 682 682"><defs><style>.cls-1{fill:#fff;}</style></defs><title>whatsapp-blanco</title><path class="cls-1" d="M567.17,113.9A314.77,314.77,0,0,0,343,21C168.41,21,26.29,163.1,26.22,337.78a316.26,316.26,0,0,0,42.29,158.4L23.56,660.35l168-44.06a316.49,316.49,0,0,0,151.4,38.56h.13c174.61,0,316.76-142.13,316.82-316.82A314.88,314.88,0,0,0,567.17,113.9ZM343,601.35h-.11a263,263,0,0,1-134-36.71l-9.61-5.71L99.63,585.08l26.6-97.17-6.26-10A262.68,262.68,0,0,1,79.71,337.8C79.77,192.61,197.9,74.49,343.15,74.49A263.38,263.38,0,0,1,606.39,338C606.32,483.22,488.2,601.35,343,601.35ZM487.49,404.13c-7.91-4-46.84-23.11-54.1-25.76s-12.53-4-17.81,4-20.45,25.76-25.07,31-9.23,5.95-17.15,2S339.95,403,309.71,376.06c-23.53-21-39.42-46.92-44-54.84s0-11.8,3.47-16.16c8.57-10.64,17.15-21.8,19.79-27.08s1.32-9.91-.66-13.87-17.81-42.93-24.4-58.78c-6.43-15.43-13-13.35-17.81-13.59-4.61-.23-9.89-.28-15.17-.28s-13.85,2-21.11,9.91-27.7,27.08-27.7,66,28.37,76.61,32.32,81.89,55.82,85.24,135.23,119.53a453.13,453.13,0,0,0,45.13,16.68c19,6,36.22,5.17,49.86,3.14,15.21-2.28,46.83-19.15,53.44-37.64s6.6-34.34,4.61-37.65S495.41,408.09,487.49,404.13Z"/></svg>